<svg width="375" height="205" viewBox="0 0 375 205" fill="none" xmlns="http://www.w3.org/2000/svg">
<path d="M294.277 118.052C290.317 128.317 284.057 144.43 263.726 148.298C263.665 131.332 256.577 121.184 251.139 115.816L269.409 45.2697C271.047 38.9836 272.802 34.922 278.702 34.922H279.329V33.5165H254.255V34.9109H255.022C259.465 34.9109 260.749 37.4065 258.949 44.4618L242.101 109.619C236.431 106.73 230.138 105.266 223.77 105.353C201.951 105.353 183.559 120.935 183.559 143.097C183.559 161.114 195.679 167.488 199.073 168.551V166.288C195.324 164.628 185.781 158.297 185.781 143.047C185.781 122.495 202.884 107.223 223.77 107.223C230.736 107.223 237.307 109.121 241.607 111.428L234.313 139.649C232.647 145.863 230.941 149.881 225.076 149.881H223.965V151.275H261.687C260.193 175.623 239.468 202.936 202.356 202.936C171.249 202.936 145.619 179.308 145.619 143.822C145.619 105.087 177.426 82.9529 211.605 82.9529C214.154 82.9333 216.702 83.0793 219.232 83.39L219.965 80.9608C218.504 81.0549 217.038 81.0825 215.682 81.0825C199.435 81.0825 194.846 75.4328 194.846 65.229C194.846 53.6087 201.634 34.5623 217.715 34.5623C222.937 34.5623 225.37 36.8476 225.37 39.6476C225.37 44.4562 221.482 47.8261 221.482 53.7359C221.482 57.2331 223.665 59.9833 227.264 59.9833C233.058 59.9833 235.652 52.5739 235.652 47.5993C235.652 40.4057 231.297 32.5647 215.849 32.5647C198.551 32.5647 183.114 45.5519 183.114 61.5658C183.114 73.236 191.447 79.4889 200.49 81.0438V81.6968C174.854 85.1497 152.824 100.4 144.275 128.029H143.592C143.653 125.661 143.831 120.238 143.831 115.977C143.831 98.6293 139.031 86.1346 124.856 82.5877V81.9292C143.742 79.4723 154.735 66.795 154.735 53.332C154.735 43.0396 148.069 33.4833 129.81 33.4833H105.719V34.8777H106.486C110.88 34.8777 112.168 37.3069 110.491 44.1076L85.8052 139.577C84.1721 145.852 82.4112 149.903 76.5176 149.903H75.4066V151.297H101.431V149.903H100.187C95.7428 149.903 94.4596 147.407 96.2594 140.346L111.046 83.1189H117.712C131.688 83.6722 131.749 103.145 132.055 118.832C133.416 188.239 177.293 205 201.49 205C240.896 205 262.193 176.751 263.648 151.297H286.128L295.744 118.052H294.277ZM118.056 80.9774H111.596L121.439 42.94C122.761 38.0761 123.989 35.6635 128.733 35.6635H129.149C139.704 35.6635 143.592 44.091 143.592 52.3802C143.592 66.1587 137.448 80.9774 118.04 80.9774H118.056ZM261.776 148.625C259.723 148.932 257.653 149.117 255.577 149.178H250.35C245.351 149.178 243.129 147.302 244.656 140.878L250.555 118.069C258.293 126.048 261.782 137.845 261.782 148.553C261.782 148.553 261.776 148.586 261.776 148.625ZM206.028 26.334L204.606 25.9024L225.859 3.71852C228.964 0.398413 232.002 0 240.068 0H243.456C242.845 4.37701 242.084 5.35644 238.663 7.42044L206.028 26.334ZM375 33.5275L370.001 55.1359H368.551C369.106 48.6008 369.662 35.6912 354.397 35.6745H348.287C343.499 35.6745 342.299 38.1314 340.954 43.0784L331.15 80.9885H343.765C355.614 80.9885 359.191 75.1894 361.868 68.1397H363.068L355.464 97.5171H354.286C354.675 91.7179 354.842 83.1299 343.765 83.1299H330.6L315.669 140.839C314.147 147.274 316.341 149.139 321.357 149.139H326.912C353.842 148.475 361.168 129.567 365.612 118.041H367.062L357.447 151.286H294.961V149.892H296.072C301.793 149.892 303.571 146.068 305.187 140.12L330.089 43.9969C331.706 37.3069 330.411 34.9109 326.045 34.9109H325.279V33.5165L375 33.5275ZM51.5042 82.2556V81.5916C68.9352 78.4209 79.0006 66.2583 79.0006 53.3707C79.0006 43.0839 72.3348 33.5331 54.1095 33.522H30.3293V34.9165H31.107C35.5008 34.9165 36.784 37.3457 35.112 44.1408L10.4153 139.577C8.77661 145.852 7.02129 149.903 1.11096 149.903H0V151.297H25.5521C65.3191 151.065 75.1844 121.588 75.1844 108.374C75.2066 94.4349 65.6968 84.5244 51.5042 82.2556ZM46.0439 42.9677C47.3715 38.0761 48.5935 35.6635 53.3262 35.6635H53.3984C63.9526 35.6635 67.841 44.091 67.841 52.3802C67.841 66.1587 61.6973 80.9774 42.2888 80.9774H36.1785L46.0439 42.9677ZM28.8239 149.172H26.4909C21.4138 149.172 19.1808 147.346 20.7028 140.872L35.6564 83.1189H42.6999C60.3642 83.7386 63.1693 99.6585 63.1693 108.617C63.1693 129.966 51.7153 149.15 28.8406 149.15L28.8239 149.172Z" fill="white"/>
</svg>
